<svg width="145" height="38" viewBox="0 0 145 38" fill="none" xmlns="http://www.w3.org/2000/svg">
<path d="M0.675232 1.42455H36.0262V7.72328C29.6461 17.3911 24.7146 27.124 21.2316 36.9221H8.04816C11.5963 28.1006 16.2674 19.3279 22.0616 10.6041C13.0448 10.6041 5.91604 10.7669 0.675232 11.0924V1.42455Z" fill="black"/>
<path d="M54.2278 37.4103C47.2292 37.4103 42.0698 35.799 38.7495 32.5764C35.4292 29.3538 33.7691 24.878 33.7691 19.1489C33.7691 13.4524 35.4292 9.00907 38.7495 5.81902C42.1023 2.59641 47.2617 0.985107 54.2278 0.985107C61.1938 0.985107 66.337 2.59641 69.6572 5.81902C72.9775 9.00907 74.6376 13.4524 74.6376 19.1489C74.6376 24.878 72.9775 29.3538 69.6572 32.5764C66.337 35.799 61.1938 37.4103 54.2278 37.4103ZM54.2766 28.8655C57.2714 28.8655 59.4523 27.9541 60.8195 26.1312C62.1866 24.2758 62.8702 21.9483 62.8702 19.1489C62.8702 16.382 62.1866 14.0871 60.8195 12.2642C59.4523 10.4088 57.2714 9.48107 54.2766 9.48107C51.1842 9.48107 48.9382 10.4088 47.5384 12.2642C46.1713 14.0871 45.4877 16.382 45.4877 19.1489C45.4877 21.9158 46.1713 24.2269 47.5384 26.0824C48.9382 27.9378 51.1842 28.8655 54.2766 28.8655Z" fill="black"/>
<path d="M97.049 37.4103C90.0504 37.4103 84.891 35.799 81.5707 32.5764C78.2505 29.3538 76.5903 24.878 76.5903 19.1489C76.5903 13.4524 78.2505 9.00907 81.5707 5.81902C84.9235 2.59641 90.083 0.985107 97.049 0.985107C104.015 0.985107 109.158 2.59641 112.478 5.81902C115.799 9.00907 117.459 13.4524 117.459 19.1489C117.459 24.878 115.799 29.3538 112.478 32.5764C109.158 35.799 104.015 37.4103 97.049 37.4103ZM97.0978 28.8655C100.093 28.8655 102.274 27.9541 103.641 26.1312C105.008 24.2758 105.691 21.9483 105.691 19.1489C105.691 16.382 105.008 14.0871 103.641 12.2642C102.274 10.4088 100.093 9.48107 97.0978 9.48107C94.0054 9.48107 91.7594 10.4088 90.3596 12.2642C88.9925 14.0871 88.3089 16.382 88.3089 19.1489C88.3089 21.9158 88.9925 24.2269 90.3596 26.0824C91.7594 27.9378 94.0054 28.8655 97.0978 28.8655Z" fill="black"/>
<path d="M136.208 15.5357H144.899V25.057H136.208V33.7971H126.687V25.057H117.947V15.5357H126.687V6.79557H136.208V15.5357Z" fill="black"/>
</svg>
